<svg xmlns="http://www.w3.org/2000/svg" viewBox="0 0 760 220" role="img" aria-label="SD monogram logo for SCRIPT DEVELOPERS">

  <!-- Icon -->
  <g transform="translate(36,32)" fill="none" stroke="#fff" stroke-width="10" stroke-linecap="round" stroke-linejoin="round">
    <rect x="10" y="10" width="210" height="170" rx="26"/>
    <!-- top & bottom film ticks -->
    <path d="M46 10 V34"/>
    <path d="M86 10 V34"/>
    <path d="M126 10 V34"/>
    <path d="M166 10 V34"/>
    <path d="M46 146 V180"/>
    <path d="M86 146 V180"/>
    <path d="M126 146 V180"/>
    <path d="M166 146 V180"/>

    <!-- SD monogram -->
    <path d="M82 70
             C82 56 96 48 116 48
             C136 48 150 56 150 70
             C150 82 140 88 124 92
             C108 96 98 102 98 114
             C98 128 112 136 132 136
             C152 136 166 128 166 114"/>
    <path d="M54 50 V136"/>
    <path d="M54 50 H86"/>
    <path d="M54 136 H86"/>
  </g>

  <!-- Wordmark -->
  <g fill="#fff" transform="translate(280,70)">
    <text x="0" y="46" font-size="50" font-weight="850" font-family="system-ui, -apple-system, Segoe UI, Roboto, Arial, sans-serif" letter-spacing="2">
      SCRIPT
    </text>
    <text x="0" y="104" font-size="50" font-weight="700" font-family="system-ui, -apple-system, Segoe UI, Roboto, Arial, sans-serif" letter-spacing="2" opacity="0.95">
      DEVELOPERS
    </text>
  </g>
</svg>